<svg version="1.2" xmlns="http://www.w3.org/2000/svg" viewBox="0 0 174 67" width="174" height="67">
	<title>logo-svg</title>
	<style>
		.s0 { fill: transparent } 
		.s1 { fill: #000000 } 
	</style>
	<g id="Layer">
		<path id="Layer" fill-rule="evenodd" class="s0" d="m-11-63h192.8v192.8h-192.8z"/>
		<path id="Layer" fill-rule="evenodd" class="s1" d="m3.1 2.1h34.1c2.2 0.3 7.8 0.3 12.1 4.9 0.1 0.2 21.1 32.5 21.1 32.5 0-0.4 20.7-31.7 20.7-31.7 0.9-1.5 4-4.6 9.5-5.1h45.9c1.4 0 5.5 0.5 8.4 2 13.3 6.6 12.8 20.9 12.8 20.9 0 0 0.4 16.8-17.5 21.4l11.3 16.3h-10.7l-14.8-20.8c-2.1-2.3-3-2.6-3-2.6h12.1c3.8 0.3 14-3.6 13.7-14.4 0-9.2-6.6-14.6-13.7-14.7 0 0-40 0-41.3 0-2.5 0.1-5.5 1.9-7.4 4.7l-22.8 34.7c-0.4 0.6-1.9 2-3.4 2-1.5 0-3-1.3-3.4-2l-23.1-36.2c-2.8-3.1-5.1-3.1-6-3.2h-29.2c0 0-5.4-8.7-5.4-8.7z"/>
		<path id="Layer" fill-rule="evenodd" class="s1" d="m35.3 13.9c2.5 0 5 0.7 6.1 2.4 1 1.5 21.8 34.5 21.8 34.5 1.8 2.8 3.8 5 7.1 4.8 3.1-0.1 4.7-2 6.3-4.5 0.5-0.3 22.3-33.8 22.3-33.8 0.6-1 2.9-3.2 5.4-3.2h40c6.9-0.1 11.1 5.2 11 11.4-0.1 6.1-4.8 10.8-10.9 11.2h-40.4l5.4-8.2h33.6c1.1 0.1 3.2-0.9 3.2-3 0-2.1-1.2-3-3.1-3h-37.5l-23.6 36.2c-2.1 3.2-6.6 5.9-11.7 5.9-5.1 0-8.9-1.3-12.1-5.9l-23.2-36.2h-19.2l-5.3-8.6z"/>
		<path id="Layer" fill-rule="evenodd" class="s1" d="m124.4 39.9c2.7 0 4.5 0.3 6.6 1.8 2.2 1.6 15.7 21.6 15.7 21.6h-9.9l-9.2-13.1c0 0-0.7-1.5-3.2-1.8h-28l5.5-8.5h22.5z"/>
	</g>
</svg>